<svg xmlns="http://www.w3.org/2000/svg" xmlns:xlink="http://www.w3.org/1999/xlink" contentStyleType="text/css" height="341px" preserveAspectRatio="none" style="width:586px;height:341px;background:#FFFFFF;" version="1.1" viewBox="0 0 586 341" width="586px" zoomAndPan="magnify"><defs/><g><!--class e5_Player--><g id="elem_e5_Player"><rect codeLine="1" fill="#F1F1F1" height="162.4075" id="e5_Player" rx="2.5" ry="2.5" style="stroke:#181818;stroke-width:0.5;" width="416.6809" x="48.5" y="7"/><ellipse cx="221.1536" cy="23" fill="#ADD1B2" rx="11" ry="11" style="stroke:#181818;stroke-width:1;"/><path d="M217.5129,29.5 L217.5129,17.3594 L225.1692,17.3594 L225.1692,19.4844 L219.8879,19.4844 L219.8879,22.1406 L224.9036,22.1406 L224.9036,24.2656 L219.8879,24.2656 L219.8879,27.375 L225.1692,27.375 L225.1692,29.5 L217.5129,29.5 Z " fill="#000000"/><text fill="#000000" font-family="sans-serif" font-size="14" lengthAdjust="spacing" textLength="62.8737" x="241.6536" y="28.432">e5_Player</text><line style="stroke:#181818;stroke-width:0.5;" x1="49.5" x2="464.1809" y1="39" y2="39"/><ellipse cx="59.5" cy="54.034" fill="none" rx="3" ry="3" style="stroke:#038048;stroke-width:1;"/><text fill="#000000" font-family="sans-serif" font-size="14" lengthAdjust="spacing" text-decoration="underline" textLength="14.9659" x="68.5" y="57.9659">ID</text><text fill="#000000" font-family="sans-serif" font-size="14" lengthAdjust="spacing" textLength="98.0976" x="87.1059" y="57.9659">: INT [&gt; 0] &#171;PK&#187;</text><line style="stroke:#181818;stroke-width:1;" x1="49.5" x2="464.1809" y1="66.0679" y2="66.0679"/><text fill="#000000" font-family="sans-serif" font-size="14" lengthAdjust="spacing" textLength="404.6809" x="54.5" y="85.0339">PlayerNickname : STRING [&#8800; NULL, UNIQUE, 3-20 Charakters]</text><text fill="#000000" font-family="sans-serif" font-size="14" lengthAdjust="spacing" textLength="367.6791" x="54.5" y="104.1018">SmashCharacter : STRING [&#8800; NULL, max. 20 Charakters]</text><text fill="#000000" font-family="sans-serif" font-size="14" lengthAdjust="spacing" textLength="103.2636" x="54.5" y="123.1697">Score : INT [&gt; 0]</text><text fill="#000000" font-family="sans-serif" font-size="14" lengthAdjust="spacing" textLength="217.3772" x="54.5" y="142.2376">CurrentGameID : e5_Games &#171;FK&#187;</text><text fill="#000000" font-family="sans-serif" font-size="14" lengthAdjust="spacing" textLength="249.479" x="54.5" y="161.3055">HoldsBonusItem : e5_BonusItem &#171;FK&#187;</text></g><!--class e5_Games--><g id="elem_e5_Games"><rect codeLine="11" fill="#F1F1F1" height="105.2038" id="e5_Games" rx="2.5" ry="2.5" style="stroke:#181818;stroke-width:0.5;" width="195.9033" x="7" y="229"/><ellipse cx="66.7728" cy="245" fill="#ADD1B2" rx="11" ry="11" style="stroke:#181818;stroke-width:1;"/><path d="M63.1322,251.5 L63.1322,239.3594 L70.7884,239.3594 L70.7884,241.4844 L65.5072,241.4844 L65.5072,244.1406 L70.5228,244.1406 L70.5228,246.2656 L65.5072,246.2656 L65.5072,249.375 L70.7884,249.375 L70.7884,251.5 L63.1322,251.5 Z " fill="#000000"/><text fill="#000000" font-family="sans-serif" font-size="14" lengthAdjust="spacing" textLength="67.8577" x="87.2728" y="250.432">e5_Games</text><line style="stroke:#181818;stroke-width:0.5;" x1="8" x2="201.9033" y1="261" y2="261"/><ellipse cx="18" cy="276.034" fill="none" rx="3" ry="3" style="stroke:#038048;stroke-width:1;"/><text fill="#000000" font-family="sans-serif" font-size="14" lengthAdjust="spacing" text-decoration="underline" textLength="53.9978" x="27" y="279.9659">GameID</text><text fill="#000000" font-family="sans-serif" font-size="14" lengthAdjust="spacing" textLength="98.0976" x="84.6378" y="279.9659">: INT [&gt; 0] &#171;PK&#187;</text><line style="stroke:#181818;stroke-width:1;" x1="8" x2="201.9033" y1="288.0679" y2="288.0679"/><text fill="#000000" font-family="sans-serif" font-size="14" lengthAdjust="spacing" textLength="139.3974" x="13" y="307.0339">ArenaName : STRING</text><text fill="#000000" font-family="sans-serif" font-size="14" lengthAdjust="spacing" textLength="183.9033" x="13" y="326.1018">StartTimestamp : DATETIME</text></g><!--class e5_BonusItems--><g id="elem_e5_BonusItems"><rect codeLine="18" fill="#F1F1F1" height="105.2038" id="e5_BonusItems" rx="2.5" ry="2.5" style="stroke:#181818;stroke-width:0.5;" width="341.5152" x="238" y="229"/><ellipse cx="353.9118" cy="245" fill="#ADD1B2" rx="11" ry="11" style="stroke:#181818;stroke-width:1;"/><path d="M350.2712,251.5 L350.2712,239.3594 L357.9274,239.3594 L357.9274,241.4844 L352.6462,241.4844 L352.6462,244.1406 L357.6618,244.1406 L357.6618,246.2656 L352.6462,246.2656 L352.6462,249.375 L357.9274,249.375 L357.9274,251.5 L350.2712,251.5 Z " fill="#000000"/><text fill="#000000" font-family="sans-serif" font-size="14" lengthAdjust="spacing" textLength="101.1916" x="374.4118" y="250.432">e5_BonusItems</text><line style="stroke:#181818;stroke-width:0.5;" x1="239" x2="578.5152" y1="261" y2="261"/><ellipse cx="249" cy="276.034" fill="none" rx="3" ry="3" style="stroke:#038048;stroke-width:1;"/><text fill="#000000" font-family="sans-serif" font-size="14" lengthAdjust="spacing" text-decoration="underline" textLength="45.7518" x="258" y="279.9659">ItemID</text><text fill="#000000" font-family="sans-serif" font-size="14" lengthAdjust="spacing" textLength="98.0976" x="307.3918" y="279.9659">: INT [&gt; 0] &#171;PK&#187;</text><line style="stroke:#181818;stroke-width:1;" x1="239" x2="578.5152" y1="288.0679" y2="288.0679"/><text fill="#000000" font-family="sans-serif" font-size="14" lengthAdjust="spacing" textLength="329.5152" x="244" y="307.0339">ItemName : STRING [&#8800; NULL, max. 20 Charakters]</text><text fill="#000000" font-family="sans-serif" font-size="14" lengthAdjust="spacing" textLength="321.3687" x="244" y="326.1018">EffectDescription : STRING [max. 100 Charakters]</text></g><!--link e5_Player to e5_Games--><g id="link_e5_Player_e5_Games"><path codeLine="25" d="M193.42,169.1 C177.39,189.29 160.61,210.44 146.02,228.82 " fill="none" id="e5_Player-e5_Games" style="stroke:#181818;stroke-width:1;"/><text fill="#000000" font-family="sans-serif" font-size="13" lengthAdjust="spacing" textLength="9.88" x="178.1991" y="191.2708">N</text><text fill="#000000" font-family="sans-serif" font-size="13" lengthAdjust="spacing" textLength="7.436" x="144.3337" y="217.1489">1</text></g><!--link e5_Player to e5_BonusItems--><g id="link_e5_Player_e5_BonusItems"><path codeLine="26" d="M320.58,169.1 C336.61,189.29 353.39,210.44 367.98,228.82 " fill="none" id="e5_Player-e5_BonusItems" style="stroke:#181818;stroke-width:1;"/><text fill="#000000" font-family="sans-serif" font-size="13" lengthAdjust="spacing" textLength="7.436" x="319.1534" y="191.2708">1</text><text fill="#000000" font-family="sans-serif" font-size="13" lengthAdjust="spacing" textLength="7.436" x="354.7841" y="217.1489">1</text></g><!--SRC=[ZLBHIiCm57tlLrpwwggjuekKmbph3Cumj_Pf30drZfMjxKXIS8WVu5_uRNw9QQ9T2XiiBqdkFUVUSq-2bIpa7l3sTRfbU-JmuO1Q5n0s4Od3goQ2Eo0qXKK4_XB2SFeKHHhYUNepD5hacugLgC3pT4Re61O_Nzz0iyba01abBraoW1llseVHcd6saSZ5KlFd9HDh7SnLy2Y_PE-NS8oQrnnjUJewQZZ7IewL6XAhh1gjFGkb_U5V-sEzVHFtTTK88h4qeCFr3_ZfEDYvOqfOvfZwPnWqL6eOjRqnuYNZCYrKLSdAdSh5mpH9oNFIxzkfwZLl0sSrRu7qrBkSyZLPhJ2NCOgS5pjPr9N5rfp0xvDQnTq7SgchkeCRk9rlTZQmiuVfVW40]--></g></svg>